<?xml version="1.0" encoding="UTF-8"?>
<svg id="Layer_1" xmlns="http://www.w3.org/2000/svg" version="1.1" viewBox="0 0 1080 1080">
  <!-- Generator: Adobe Illustrator 30.1.0, SVG Export Plug-In . SVG Version: 2.1.1 Build 136)  -->
  <defs>
    <style>
      .st0 {
        fill: #ffb93e;
      }
    </style>
  </defs>
  <path class="st0" d="M545.35,20.72C254.89,12.43,15.11,303.76,19.69,581.66c2.56,155.63,85.88,300.87,214.86,388.97,269.07,183.8,717.89,86.99,810.82-248.47C1133.75,403.14,868,29.94,545.35,20.72Z"/>
  <path d="M838.34,438.43c-2.46-16.98-6.59-33.71-12.75-49.74-7.06-18.37-15.22-36.43-26.82-52.41-13.55-18.66-28-33.63-46.87-46.98-15-10.61-33.07-18.47-51.04-22.24-24.35-5.11-47.62-4.61-71.98.2-3.25.64-6.49,1.41-9.71,2.25-24.85-37.52-57.92-68.49-101.74-83.28-46.09-15.56-98.11-3.11-138.63,21.58-38.17,23.25-68.88,57.87-91.13,96.36-20.79,35.97-35.75,76.52-42.29,117.59-4.4,27.62-6.68,55.32-5.33,83.28,1.34,27.86,5.33,55.81,11.43,83.02,22.78,101.65,77.7,192.51,137.42,276.46,14.21,19.97,28.74,39.72,43.27,59.46,7.18,9.75,14.79,17.35,26.89,20.68,10.77,2.97,25.12,1.63,34.68-4.54,9.61-6.19,18.07-15.42,20.68-26.89,2.52-11.08,2.51-25.11-4.54-34.68-43.14-58.61-86.48-117.5-120.96-181.77-8.75-16.31-16.89-32.94-24.28-49.91-15.07-36.83-26.36-75.18-32.27-114.56-3.29-28.19-3.66-56.63-.45-84.84,3.72-23.72,10.06-46.89,18.94-69.2,8.43-18.93,18.66-37.02,30.91-53.74,9.25-11.37,19.47-21.87,30.78-31.2,8.86-6.37,18.24-11.96,28.12-16.6,8.03-3.04,16.29-5.47,24.73-7.08,5.09-.37,10.18-.39,15.27-.04,5.02,1.01,9.95,2.38,14.78,4.1,6.17,3.02,12.05,6.55,17.67,10.51,8.65,7.28,16.48,15.44,23.65,24.18.06.08.12.17.18.25-9.75,6.64-19.17,13.79-28.37,21.24-18.49,14.98-34.04,32.24-48.4,51.16-14.1,18.57-24.74,39.37-32.23,61.46-4.37,12.87-6.55,26.2-8.01,39.69-1.31,12.15.18,23.87,2.1,35.93,3.72,23.39,15.95,44.36,30.73,62.42,12.23,14.93,28.78,27.62,46.48,35.35,21.04,9.19,43.57,15.4,66.79,12.83,14.21-1.57,26.01-4.16,39.08-9.67,12.86-5.43,22.98-12.06,33.85-21.01,16.9-13.92,27.43-33.44,35.15-53.5,6.94-18.02,9.29-38.19,9.86-57.36.62-20.76-2.04-41.61-5.43-62.04-2.76-16.66-6.74-33.11-11.57-49.29-2.23-7.48-4.66-15.01-7.3-22.55,5.16-.26,10.32-.21,15.47.19,5.38,1.05,10.66,2.49,15.83,4.32,5.2,2.55,10.18,5.5,14.94,8.8,5.76,4.94,11.07,10.36,15.94,16.17,6.49,9.15,12.01,18.93,16.69,29.12,5.74,14.87,9.81,30.31,12.36,46.04,2.7,25.95.8,51.91-2.44,77.76-9.03,62.57-26.73,123.76-50.73,182.21-14.05,32.76-30.11,64.64-48.33,95.29-5.94,10-7.61,23.5-4.54,34.68,2.87,10.44,10.95,21.75,20.68,26.89,21.7,11.47,48.72,5.48,61.57-16.14,26.14-43.98,47.8-90.55,65.94-138.37,17.02-44.88,30.26-91.27,38.66-138.54,4.68-26.35,8.2-53.03,10-79.75,1.44-21.44-.26-42.33-3.34-63.58ZM518.78,519.75c-2.29-3.39-4.36-6.92-6.2-10.57-1.25-3.64-2.27-7.35-3.06-11.11-.24-3.97-.22-7.94.05-11.91,1.6-8.49,3.98-16.79,7.03-24.88,5.07-10.8,11.24-21.01,18.23-30.67,11.37-13.92,24.29-26.47,38.28-37.75,1.34-.99,2.7-1.97,4.06-2.94,6.69,20.56,11.87,41.64,15.15,62.94,1.73,15.24,2.33,30.62.9,45.89-1.17,6.58-2.8,13.05-5.02,19.34-1.49,2.97-3.14,5.86-4.96,8.64-1.73,1.92-3.54,3.75-5.45,5.48-2.49,1.63-5.05,3.12-7.69,4.48-2.92.98-5.89,1.8-8.91,2.45-3.31.18-6.63.17-9.94-.03-3.91-.82-7.75-1.89-11.52-3.2-4-2-7.85-4.26-11.55-6.77-3.34-2.92-6.47-6.06-9.4-9.39Z"/>
</svg>